<?xml version="1.0" encoding="utf-8"?>
<!-- Generator: Adobe Illustrator 24.3.0, SVG Export Plug-In . SVG Version: 6.00 Build 0)  -->
<svg version="1.1" xmlns="http://www.w3.org/2000/svg" xmlns:xlink="http://www.w3.org/1999/xlink" x="0px" y="0px"
	 viewBox="0 0 610 300" style="enable-background:new 0 0 610 300;" xml:space="preserve">
<style type="text/css">
	.st0{fill:#3C6286;}
	.st1{fill:#193753;}
	.st2{fill:#FFFFFF;}
	.st3{fill:none;stroke:#FFFFFF;stroke-width:5;stroke-linecap:round;stroke-linejoin:round;stroke-miterlimit:10;}
	.st4{fill:none;stroke:#EAEAEA;stroke-miterlimit:10;}
	.st5{opacity:0.25;fill:#193753;}
</style>
<g id="ref">
</g>
<g id="art">
	<g>
		
			<image style="overflow:visible;opacity:0.15;" width="261" height="317" xlink:href="625A99E1CFBE13F0.png"  transform="matrix(1 0 0 1 184 -8)">
		</image>
		<g>
			<g>
				
					<rect x="183.9" y="60" transform="matrix(0.2604 -0.9655 0.9655 0.2604 87.0877 413.5791)" class="st2" width="259.1" height="179.8"/>
				<g>
					<path d="M255.7,115.2L254.1,97l3.6,1l0.9,13.4l7.3-11.2l3.6,0.9l-10.4,15L255.7,115.2z"/>
					<path d="M268.4,109.8c0.4-1.7,1.1-3,1.9-4.1c0.6-0.7,1.3-1.4,2.2-1.9c0.8-0.5,1.7-0.8,2.5-0.9c1.2-0.2,2.4-0.1,3.8,0.3
						c2.4,0.6,4.2,1.9,5.3,3.8c1.1,1.9,1.2,4.2,0.5,6.9c-0.7,2.7-2,4.6-3.9,5.7c-1.9,1.1-4,1.4-6.4,0.7c-2.5-0.7-4.2-1.9-5.3-3.8
						C267.9,114.7,267.7,112.4,268.4,109.8z M271.9,110.6c-0.5,1.9-0.4,3.4,0.2,4.6c0.6,1.2,1.6,2,2.9,2.3c1.3,0.4,2.6,0.2,3.7-0.6
						c1.1-0.7,1.9-2.1,2.4-4c0.5-1.9,0.5-3.4-0.1-4.6c-0.6-1.2-1.6-1.9-3-2.3c-1.4-0.4-2.6-0.2-3.7,0.5S272.4,108.7,271.9,110.6z"/>
					<path d="M288.7,123.9l3.7-13.8l-4.9-1.3l0.7-2.8l13.2,3.5l-0.7,2.8l-4.9-1.3l-3.7,13.8L288.7,123.9z"/>
					<path d="M299,126.7l4.4-16.6l3.4,0.9l-4.4,16.6L299,126.7z"/>
					<path d="M244.1,141.9l4.4-16.6l5.4,1.4c2,0.5,3.3,1,3.9,1.3c0.9,0.5,1.5,1.3,2,2.3s0.5,2.2,0.1,3.5c-0.3,1-0.7,1.8-1.2,2.4
						s-1.2,1-1.8,1.3c-0.7,0.2-1.3,0.4-1.9,0.3c-0.8-0.1-2-0.3-3.5-0.7l-2.2-0.6l-1.7,6.3L244.1,141.9z M251.1,129l-1.3,4.7l1.8,0.5
						c1.3,0.4,2.2,0.5,2.7,0.4c0.5-0.1,0.9-0.2,1.3-0.5c0.4-0.3,0.6-0.7,0.7-1.2c0.2-0.6,0.1-1.1-0.1-1.6c-0.3-0.5-0.6-0.9-1.2-1.1
						c-0.4-0.2-1.2-0.4-2.4-0.8L251.1,129z"/>
					<path d="M262.6,146.8l-3.2-0.8l3.2-12l3,0.8l-0.5,1.7c0.7-0.7,1.3-1.1,1.8-1.2c0.5-0.1,1-0.2,1.5,0c0.7,0.2,1.4,0.6,1.9,1.2
						l-1.7,2.5c-0.4-0.5-0.9-0.8-1.4-0.9c-0.4-0.1-0.9-0.1-1.2,0.1c-0.4,0.2-0.7,0.5-1.1,1.1c-0.3,0.6-0.8,1.9-1.3,4L262.6,146.8z"
						/>
					<path d="M269.4,142c0.3-1.1,0.8-2,1.6-2.9c0.8-0.9,1.7-1.4,2.8-1.7c1.1-0.3,2.2-0.2,3.4,0.1c1.8,0.5,3.2,1.5,4,3
						c0.8,1.5,1,3.1,0.6,4.9c-0.5,1.8-1.5,3.2-3,4.1c-1.5,0.9-3.1,1.1-4.9,0.6c-1.1-0.3-2.1-0.8-3-1.6c-0.9-0.8-1.4-1.7-1.7-2.8
						C269,144.6,269.1,143.4,269.4,142z M272.7,143c-0.3,1.2-0.3,2.2,0.1,3c0.4,0.8,1,1.3,1.8,1.5c0.8,0.2,1.6,0.1,2.3-0.4
						c0.7-0.5,1.3-1.3,1.6-2.5c0.3-1.2,0.3-2.2-0.1-2.9c-0.4-0.8-1-1.3-1.8-1.5c-0.8-0.2-1.6-0.1-2.3,0.4
						C273.5,141,273,141.8,272.7,143z"/>
					<path d="M293.7,155.1l-3-0.8l0.5-1.8c-0.7,0.6-1.4,0.9-2.1,1.1c-0.8,0.2-1.5,0.1-2.2,0c-1.4-0.4-2.4-1.2-3.1-2.6
						c-0.7-1.4-0.8-3.1-0.2-5.1c0.5-2,1.4-3.5,2.7-4.3c1.2-0.8,2.6-1,4.1-0.6c1.3,0.4,2.4,1.2,3,2.6l1.6-6l3.2,0.8L293.7,155.1z
						 M286.9,146.5c-0.3,1.3-0.4,2.3-0.2,2.9c0.3,1,0.9,1.6,1.8,1.8c0.7,0.2,1.4,0,2.1-0.4c0.7-0.5,1.2-1.3,1.5-2.6
						c0.4-1.4,0.4-2.4,0-3.2s-0.9-1.2-1.7-1.4c-0.8-0.2-1.5-0.1-2.1,0.4C287.7,144.5,287.2,145.3,286.9,146.5z"/>
					<path d="M304.8,158l0.5-1.8c-0.6,0.5-1.3,0.9-2.1,1.1c-0.8,0.2-1.6,0.2-2.4,0c-0.8-0.2-1.5-0.6-2-1.1c-0.5-0.5-0.9-1.1-1-1.9
						c-0.1-0.7,0-1.6,0.3-2.8l2-7.6l3.2,0.8l-1.5,5.5c-0.4,1.7-0.7,2.7-0.6,3.2c0,0.4,0.1,0.8,0.4,1.1c0.3,0.3,0.6,0.5,1.1,0.6
						c0.5,0.1,1.1,0.1,1.6-0.1s0.9-0.5,1.2-0.9c0.3-0.4,0.6-1.5,1.1-3.2l1.3-5.1l3.2,0.8l-3.2,12L304.8,158z"/>
					<path d="M323.8,154l-3.3-0.3c0.1-0.7-0.1-1.2-0.3-1.6s-0.7-0.7-1.3-0.9c-0.8-0.2-1.5-0.1-2.1,0.3c-0.6,0.4-1.1,1.3-1.4,2.6
						c-0.4,1.4-0.4,2.5-0.1,3.2s0.9,1.2,1.7,1.4c0.6,0.2,1.1,0.1,1.6-0.1c0.5-0.2,0.9-0.8,1.3-1.6l3,1.4c-0.7,1.3-1.6,2.3-2.7,2.8
						c-1.1,0.5-2.4,0.5-4,0.1c-1.8-0.5-3-1.4-3.8-2.8s-0.9-3.1-0.3-5c0.5-2,1.5-3.4,2.8-4.2c1.3-0.8,2.9-1,4.7-0.5
						c1.5,0.4,2.5,1,3.2,1.9S323.7,152.6,323.8,154z"/>
					<path d="M332.6,152.5l-0.7,2.5l-2.2-0.6l-1.3,4.8c-0.3,1-0.4,1.6-0.4,1.7c0,0.2,0.1,0.3,0.2,0.5c0.1,0.1,0.3,0.2,0.5,0.3
						c0.3,0.1,0.7,0.1,1.4,0l-0.4,2.5c-0.8,0.1-1.7,0.1-2.6-0.2c-0.6-0.2-1.1-0.4-1.5-0.7s-0.7-0.7-0.8-1c-0.1-0.4-0.2-0.8-0.1-1.4
						c0-0.4,0.2-1.1,0.5-2.3l1.4-5.2l-1.5-0.4l0.7-2.5l1.5,0.4l0.6-2.4l3.7-1l-1.1,4.2L332.6,152.5z"/>
					<path d="M241.1,153.1l6.6,1.8c1.3,0.3,2.3,0.7,2.9,0.9c0.6,0.3,1.1,0.7,1.6,1.1c0.4,0.5,0.7,1.1,0.9,1.7c0.2,0.7,0.2,1.4,0,2.1
						c-0.2,0.8-0.6,1.4-1.2,2c-0.6,0.5-1.3,0.9-2.1,1c0.9,0.6,1.6,1.3,1.9,2.1c0.4,0.9,0.4,1.8,0.2,2.7c-0.2,0.8-0.6,1.4-1.1,2.1
						c-0.5,0.6-1.2,1.1-1.9,1.3c-0.7,0.3-1.5,0.3-2.5,0.2c-0.6-0.1-1.9-0.4-4.1-1l-5.7-1.5L241.1,153.1z M243.7,156.8l-1,3.8
						l2.2,0.6c1.3,0.3,2.1,0.5,2.5,0.6c0.6,0.1,1.1,0,1.5-0.2c0.4-0.2,0.7-0.6,0.8-1.2c0.1-0.5,0.1-1-0.1-1.4
						c-0.2-0.4-0.6-0.7-1.1-0.9c-0.3-0.1-1.3-0.4-2.9-0.8L243.7,156.8z M242,163.4l-1.2,4.4l3.1,0.8c1.2,0.3,2,0.5,2.3,0.5
						c0.5,0,1-0.1,1.4-0.3s0.7-0.7,0.8-1.3c0.1-0.5,0.1-1,0-1.4s-0.4-0.8-0.8-1s-1.4-0.6-2.9-1L242,163.4z"/>
					<path d="M256.4,175l-3.2-0.8l3.2-12l3,0.8l-0.5,1.7c0.7-0.7,1.3-1.1,1.8-1.2c0.5-0.1,1-0.2,1.5,0c0.7,0.2,1.4,0.6,1.9,1.2
						l-1.7,2.5c-0.4-0.5-0.9-0.8-1.4-0.9c-0.4-0.1-0.9-0.1-1.2,0.1c-0.4,0.2-0.7,0.5-1.1,1.1s-0.8,1.9-1.3,4L256.4,175z"/>
					<path d="M263.3,170.2c0.3-1.1,0.8-2,1.6-2.9c0.8-0.9,1.7-1.4,2.8-1.7c1.1-0.3,2.2-0.2,3.4,0.1c1.8,0.5,3.2,1.5,4,3
						c0.8,1.5,1,3.1,0.6,4.9c-0.5,1.8-1.5,3.2-3,4.1c-1.5,0.9-3.1,1.1-4.9,0.6c-1.1-0.3-2.1-0.8-3-1.6s-1.4-1.7-1.7-2.8
						C262.9,172.8,263,171.6,263.3,170.2z M266.5,171.2c-0.3,1.2-0.3,2.2,0.1,3c0.4,0.8,1,1.3,1.8,1.5c0.8,0.2,1.6,0.1,2.3-0.4
						c0.7-0.5,1.3-1.3,1.6-2.5c0.3-1.2,0.3-2.2-0.1-2.9c-0.4-0.8-1-1.3-1.8-1.5c-0.8-0.2-1.6-0.1-2.3,0.4
						C267.4,169.2,266.9,170,266.5,171.2z"/>
					<path d="M289.3,174.6l-3.3-0.3c0.1-0.7-0.1-1.2-0.3-1.6s-0.7-0.7-1.3-0.9c-0.8-0.2-1.5-0.1-2.1,0.3c-0.6,0.4-1.1,1.3-1.4,2.6
						c-0.4,1.4-0.4,2.5-0.1,3.2s0.9,1.2,1.7,1.4c0.6,0.2,1.1,0.1,1.6-0.1c0.5-0.2,0.9-0.8,1.3-1.6l3,1.4c-0.7,1.3-1.6,2.3-2.7,2.8
						s-2.4,0.5-4,0.1c-1.8-0.5-3-1.4-3.8-2.8s-0.9-3.1-0.3-5c0.5-2,1.5-3.4,2.8-4.2c1.3-0.8,2.9-1,4.7-0.5c1.5,0.4,2.5,1,3.2,1.9
						S289.3,173.2,289.3,174.6z"/>
					<path d="M297.1,168l-1.6,6.1c1.3-0.9,2.7-1.2,4.2-0.8c0.7,0.2,1.4,0.5,1.9,0.9c0.5,0.4,0.9,0.9,1.1,1.4c0.2,0.5,0.3,1,0.2,1.6
						c0,0.5-0.2,1.4-0.5,2.4l-1.9,7.1l-3.2-0.8l1.7-6.4c0.3-1.3,0.5-2.1,0.5-2.4c0-0.4-0.2-0.7-0.4-1c-0.3-0.3-0.6-0.5-1.1-0.6
						c-0.5-0.1-1-0.1-1.5,0c-0.5,0.1-0.9,0.5-1.2,0.9s-0.6,1.2-0.9,2.2l-1.6,6l-3.2-0.8l4.4-16.6L297.1,168z"/>
					<path d="M311.6,189.6l0.5-1.8c-0.6,0.5-1.3,0.9-2.1,1.1c-0.8,0.2-1.6,0.2-2.4,0c-0.8-0.2-1.5-0.6-2-1.1c-0.5-0.5-0.9-1.1-1-1.9
						c-0.1-0.7,0-1.6,0.3-2.8l2-7.6l3.2,0.8l-1.5,5.5c-0.4,1.7-0.7,2.7-0.6,3.2c0,0.4,0.1,0.8,0.4,1.1c0.3,0.3,0.6,0.5,1.1,0.6
						c0.5,0.1,1.1,0.1,1.6-0.1s0.9-0.5,1.2-0.9s0.6-1.5,1.1-3.2l1.3-5.1l3.2,0.8l-3.2,12L311.6,189.6z"/>
					<path d="M320.9,192.1l-3.2-0.8l3.2-12l3,0.8l-0.5,1.7c0.7-0.7,1.3-1.1,1.8-1.2c0.5-0.1,1-0.2,1.5,0c0.7,0.2,1.4,0.6,1.9,1.2
						l-1.7,2.5c-0.4-0.5-0.9-0.8-1.4-0.9c-0.4-0.1-0.9-0.1-1.2,0.1c-0.4,0.2-0.7,0.5-1.1,1.1s-0.8,1.9-1.3,4L320.9,192.1z"/>
					<path d="M334.8,191.7l3,1.4c-0.7,1.1-1.6,1.8-2.6,2.1c-1,0.4-2.2,0.4-3.5,0c-2.1-0.6-3.5-1.6-4.1-3.3c-0.5-1.3-0.5-2.8-0.1-4.5
						c0.5-2,1.5-3.4,2.8-4.3c1.3-0.9,2.8-1.1,4.4-0.6c1.8,0.5,3,1.4,3.8,2.9c0.7,1.5,0.7,3.4,0,5.8l-8-2.1c-0.2,0.9-0.2,1.8,0.2,2.4
						c0.4,0.7,0.9,1.1,1.6,1.3c0.5,0.1,1,0.1,1.4-0.1S334.5,192.2,334.8,191.7z M335.9,188.5c0.2-0.9,0.2-1.7-0.2-2.3
						c-0.3-0.6-0.8-1-1.5-1.2c-0.7-0.2-1.3-0.1-1.9,0.3c-0.6,0.4-1,1-1.2,1.9L335.9,188.5z"/>
				</g>
				
					<rect x="101" y="123.6" transform="matrix(0.2604 -0.9655 0.9655 0.2604 47.3338 316.9264)" class="st4" width="259.1" height="8"/>
				<circle class="st5" cx="280.5" cy="68.5" r="15.6"/>
				<circle class="st5" cx="317" cy="78.2" r="15.6"/>
				<circle class="st5" cx="353.8" cy="88" r="15.6"/>
				<g>
					
						<rect x="272.5" y="175.6" transform="matrix(0.2604 -0.9655 0.9655 0.2604 -39.1365 471.2213)" class="st0" width="31.1" height="171.1"/>
					
						<image style="overflow:visible;" width="133" height="59" xlink:href="voti-logo.png"  transform="matrix(0.3165 8.536000e-02 -8.536000e-02 0.3165 214.4176 230.9876)">
					</image>
				</g>
			</g>
		</g>
	</g>
</g>
</svg>
